HIERARCHY
ROOT Hips
{
	OFFSET 0.000000 0.000000 0.000000
	CHANNELS 6 Xposition Yposition Zposition Zrotation Yrotation Xrotation 
	JOINT LowerBack
	{
		OFFSET 0.000000 0.000000 0.000000
		CHANNELS 3 Zrotation Yrotation Xrotation
		JOINT Spine
		{
			OFFSET 0.028270 2.035590 -0.193380
			CHANNELS 3 Zrotation Yrotation Xrotation
			JOINT Spine1
			{
				OFFSET 0.056720 2.048850 -0.042750
				CHANNELS 3 Zrotation Yrotation Xrotation
				JOINT Neck
				{
					OFFSET 0.000000 0.000000 0.000000
					CHANNELS 3 Zrotation Yrotation Xrotation
					JOINT Neck1
					{
						OFFSET -0.054170 1.746240 0.172020
						CHANNELS 3 Zrotation Yrotation Xrotation
						JOINT Head
						{
							OFFSET 0.104070 1.761360 -0.123970
							CHANNELS 3 Zrotation Yrotation Xrotation
							End Site
							{
								OFFSET 0.000000 0.000000 0.000000
							}
						}
					}
				}
				JOINT LeftShoulder
				{
					OFFSET 0.000000 0.000000 0.000000
					CHANNELS 3 Zrotation Yrotation Xrotation
					JOINT LeftArm
					{
						OFFSET 3.362410 1.200890 -0.311210
						CHANNELS 3 Zrotation Yrotation Xrotation
						JOINT LeftForeArm
						{
							OFFSET 4.983000 -0.000000 -0.000000
							CHANNELS 3 Zrotation Yrotation Xrotation
							JOINT LeftHand
							{
								OFFSET 3.483560 -0.000000 -0.000000
								CHANNELS 3 Zrotation Yrotation Xrotation
								JOINT LeftFingerBase
								{
									OFFSET 0.000000 0.000000 0.000000
									CHANNELS 3 Zrotation Yrotation Xrotation
									JOINT LeftHandIndex1
									{
										OFFSET 0.715260 -0.000000 -0.000000
										CHANNELS 3 Zrotation Yrotation Xrotation
										End Site
										{
											OFFSET 0.000000 0.000000 0.000000
										}
									}
								}
								JOINT LThumb
								{
									OFFSET 0.000000 0.000000 0.000000
									CHANNELS 3 Zrotation Yrotation Xrotation
									End Site
									{
										OFFSET 0.000000 0.000000 0.000000
									}
								}
							}
						}
					}
				}
				JOINT RightShoulder
				{
					OFFSET 0.000000 0.000000 0.000000
					CHANNELS 3 Zrotation Yrotation Xrotation
					JOINT RightArm
					{
						OFFSET -3.136600 1.374050 -0.404650
						CHANNELS 3 Zrotation Yrotation Xrotation
						JOINT RightForeArm
						{
							OFFSET -5.241900 -0.000000 -0.000000
							CHANNELS 3 Zrotation Yrotation Xrotation
							JOINT RightHand
							{
								OFFSET -3.444170 -0.000000 -0.000000
								CHANNELS 3 Zrotation Yrotation Xrotation
								JOINT RightFingerBase
								{
									OFFSET 0.000000 0.000000 0.000000
									CHANNELS 3 Zrotation Yrotation Xrotation
									JOINT RightHandIndex1
									{
										OFFSET -0.622530 -0.000000 -0.000000
										CHANNELS 3 Zrotation Yrotation Xrotation
										End Site
										{
											OFFSET 0.000000 0.000000 0.000000
										}
									}
								}
								JOINT RThumb
								{
									OFFSET 0.000000 0.000000 0.000000
									CHANNELS 3 Zrotation Yrotation Xrotation
									End Site
									{
										OFFSET 0.000000 0.000000 0.000000
									}
								}
							}
						}
					}
				}
			}
		}
	}
}
}
MOTION
Frames: 12
Frame Time: 0.008333
-10.211029 16.802331 -0.899082 172.575225 84.565979 179.416147 5.694036 -6.888876 -3.131771 1.275916 -7.310685 -3.670183 -4.182326 -7.365497 -0.175206 7.558413 -19.051668 -8.663905 -2.898042 -0.219061 -0.145706 0.000000 0.000000 0.000000 11.426558 -1.412829 -2.709502 -52.658381 -16.808490 6.175258 178.737512 -77.498592 179.839153 14.763254 -4.976257 -0.747608 -0.212213 0.730287 -0.000000 0.000000 0.000000 0.000000 0.000000 0.000000 0.000000 11.123137 -18.759135 2.195503 66.890873 -31.822854 -10.160276 3.318802 39.339102 -0.008820 0.036686 -4.425649 0.003573 0.121122 0.028458 -0.000000 0.000000 0.000000 0.000000 0.000000 0.000000 0.000000 
-10.012389 16.746350 -0.908754 178.183512 84.805612 -175.237616 6.478240 -6.749152 -2.921734 1.399744 -7.223715 -3.662777 -4.318165 -7.281626 -0.234904 7.667672 -18.860700 -8.770913 -3.002607 -0.226360 -0.178997 0.000000 0.000000 0.000000 10.820302 -1.350909 -2.546575 -53.200614 -15.637859 6.278130 178.764641 -77.905894 179.840104 14.929149 -5.151077 -0.778765 -0.218919 0.724779 -0.000000 0.000000 0.000000 0.000000 0.000000 0.000000 0.000000 11.557586 -18.459060 2.224652 66.834446 -30.386305 -10.363612 3.306082 38.957515 -0.008682 -0.219848 -4.454417 0.013577 0.120084 0.024110 -0.000000 0.000000 0.000000 0.000000 0.000000 0.000000 0.000000 
-9.819762 16.687178 -0.919471 -176.028089 84.995201 -169.718153 7.217223 -6.597930 -2.648016 1.504927 -7.120338 -3.644197 -4.485340 -7.182070 -0.316982 7.849919 -18.624175 -8.876564 -3.120939 -0.234626 -0.213554 0.000000 0.000000 0.000000 10.161292 -1.328395 -2.369586 -53.775255 -14.494144 6.374882 178.797455 -78.477535 179.840807 15.173774 -5.273969 -0.807331 -0.226963 0.716415 -0.000000 0.000000 0.000000 0.000000 0.000000 0.000000 0.000000 12.111621 -18.120313 2.258215 66.775554 -28.821307 -10.529559 3.286199 38.526668 -0.008279 -0.593217 -4.360462 0.027483 0.118893 0.018794 -0.000000 0.000000 0.000000 0.000000 0.000000 0.000000 0.000000 
-9.633866 16.625231 -0.930511 -170.382497 85.115022 -164.356150 7.888109 -6.445802 -2.302976 1.586051 -7.009071 -3.612981 -4.686658 -7.075082 -0.425359 8.107136 -18.319628 -8.970079 -3.255800 -0.244162 -0.246540 0.000000 0.000000 0.000000 9.446900 -1.353326 -2.174179 -54.354672 -13.382464 6.444858 178.838610 -79.217884 179.841613 15.472124 -5.315489 -0.827618 -0.235711 0.704404 -0.000000 0.000000 0.000000 0.000000 0.000000 0.000000 0.000000 12.798974 -17.727848 2.292848 66.713316 -27.153847 -10.655471 3.254327 38.067150 -0.007697 -1.135639 -4.159374 0.045893 0.117635 0.012619 -0.000000 0.000000 0.000000 0.000000 0.000000 0.000000 0.000000 
-9.454810 16.561223 -0.941508 -165.011190 85.158724 -159.282824 8.495042 -6.298492 -1.891389 1.644391 -6.895434 -3.569830 -4.920166 -6.965894 -0.557198 8.430284 -17.933485 -9.044362 -3.405510 -0.254857 -0.276081 0.000000 0.000000 0.000000 8.666781 -1.412370 -1.956500 -54.923195 -12.323321 6.479672 178.889244 -80.151477 179.842833 15.797401 -5.265737 -0.836138 -0.244390 0.688420 -0.000000 0.000000 0.000000 0.000000 0.000000 0.000000 0.000000 13.606188 -17.273369 2.325814 66.650495 -25.386997 -10.738870 3.208006 37.573801 -0.007069 -1.882456 -3.874593 0.068004 0.116378 0.005745 -0.000000 0.000000 0.000000 0.000000 0.000000 0.000000 0.000000 
-9.282546 16.496181 -0.951791 -160.063061 85.130052 -154.647315 9.036908 -6.160210 -1.418360 1.680168 -6.783163 -3.515735 -5.184102 -6.857761 -0.710853 8.811953 -17.451308 -9.090329 -3.569500 -0.266692 -0.299685 0.000000 0.000000 0.000000 7.819492 -1.499464 -1.714083 -55.467697 -11.318862 6.469973 178.949087 -81.298500 179.844754 16.123953 -5.124553 -0.830502 -0.252166 0.668290 -0.000000 0.000000 0.000000 0.000000 0.000000 0.000000 0.000000 14.527239 -16.746053 2.353930 66.581800 -23.533682 -10.764233 3.144889 37.055204 -0.006569 -2.854680 -3.544453 0.092214 0.115118 -0.001569 -0.000000 0.000000 0.000000 0.000000 0.000000 0.000000 0.000000 
-9.116574 16.431304 -0.960887 -155.564437 85.042506 -150.470390 9.517916 -6.031093 -0.896463 1.695781 -6.672465 -3.452379 -5.472722 -6.750544 -0.879382 9.239294 -16.868968 -9.103035 -3.744071 -0.279339 -0.315937 0.000000 0.000000 0.000000 6.905231 -1.594861 -1.446636 -55.987246 -10.379875 6.415691 179.015393 -82.695470 179.847566 16.433431 -4.908455 -0.811418 -0.258265 0.644185 -0.000000 0.000000 0.000000 0.000000 0.000000 0.000000 0.000000 15.540404 -16.142804 2.374138 66.504262 -21.591168 -10.715744 3.064801 36.507100 -0.006370 -4.048756 -3.207508 0.116620 0.113818 -0.009078 -0.000000 0.000000 0.000000 0.000000 0.000000 0.000000 0.000000 
-8.956274 16.368005 -0.967822 -151.617131 84.916626 -146.849333 9.923283 -5.911869 -0.337933 1.689797 -6.563167 -3.381510 -5.780612 -6.643668 -1.057921 9.704154 -16.182871 -9.075929 -3.926951 -0.292602 -0.322826 0.000000 0.000000 0.000000 5.939366 -1.692503 -1.156039 -56.484652 -9.494347 6.312474 179.083428 -84.373486 179.851389 16.716781 -4.643286 -0.781887 -0.262000 0.616365 -0.000000 0.000000 0.000000 0.000000 0.000000 0.000000 0.000000 16.635486 -15.459878 2.383130 66.409034 -19.568812 -10.566804 2.968183 35.941031 -0.006624 -5.438170 -2.906996 0.140422 0.112393 -0.016522 -0.000000 0.000000 0.000000 0.000000 0.000000 0.000000 0.000000 
-8.800681 16.307780 -0.972209 -148.190611 84.772369 -143.742428 10.247192 -5.800710 0.235823 1.663399 -6.453660 -3.307021 -6.099263 -6.535532 -1.240713 10.192307 -15.395697 -9.004131 -4.114472 -0.306193 -0.318643 0.000000 0.000000 0.000000 4.939525 -1.789649 -0.845803 -56.975514 -8.642131 6.154404 179.145715 -86.365099 179.856248 16.976084 -4.361674 -0.746713 -0.262835 0.585219 -0.000000 0.000000 0.000000 0.000000 0.000000 0.000000 0.000000 17.788915 -14.697111 2.379004 66.290243 -17.474246 -10.296589 2.857685 35.366632 -0.007420 -6.969984 -2.675952 0.164417 0.110784 -0.023735 -0.000000 0.000000 0.000000 0.000000 0.000000 0.000000 0.000000 
-8.648613 16.251989 -0.974015 -145.203347 84.623667 -141.054754 10.490415 -5.695074 0.800521 1.620589 -6.342482 -3.230429 -6.414781 -6.424731 -1.408899 10.685056 -14.535448 -8.898131 -4.297866 -0.319278 -0.305953 0.000000 0.000000 0.000000 3.926219 -1.840186 -0.522936 -57.493492 -7.864976 5.959795 179.194497 -88.738964 179.861598 17.228631 -4.101797 -0.712688 -0.260713 0.551407 -0.000000 0.000000 0.000000 0.000000 0.000000 0.000000 0.000000 18.957238 -13.878594 2.357418 66.152055 -15.273052 -9.894197 2.739004 34.761037 -0.008751 -8.562945 -2.519861 0.189007 0.109043 -0.030702 -0.000000 0.000000 0.000000 0.000000 0.000000 0.000000 0.000000 
-8.498991 16.201967 -0.973192 -142.626272 84.481850 -138.745442 10.648341 -5.593287 1.332711 1.563414 -6.229209 -3.154959 -6.716412 -6.311061 -1.552855 11.166883 -13.618097 -8.761940 -4.472977 -0.331539 -0.285359 0.000000 0.000000 0.000000 2.931047 -1.830046 -0.194097 -58.071632 -7.165643 5.729610 -0.779549 -88.461026 -0.131396 17.498856 -3.887853 -0.684806 -0.255661 0.515255 -0.000000 0.000000 0.000000 0.000000 0.000000 0.000000 0.000000 20.113033 -13.013806 2.315626 65.995899 -12.967104 -9.353625 2.617227 34.135295 -0.010555 -10.125134 -2.436248 0.215095 0.107286 -0.037446 -0.000000 0.000000 0.000000 0.000000 0.000000 0.000000 0.000000 
-8.350728 16.158961 -0.969542 -140.484868 84.359349 -136.829821 10.710407 -5.493722 1.810651 1.492213 -6.113471 -3.084233 -6.995092 -6.194530 -1.667434 11.624462 -12.666379 -8.598897 -4.637189 -0.342854 -0.257151 0.000000 0.000000 0.000000 1.988744 -1.770571 0.133551 -58.736932 -6.519196 5.447514 -0.780647 -85.216250 -0.124130 17.814089 -3.722581 -0.664663 -0.247645 0.476738 -0.000000 0.000000 0.000000 0.000000 0.000000 0.000000 0.000000 21.234548 -12.119153 2.253032 65.819949 -10.561965 -8.652672 2.497321 33.505574 -0.012712 -11.571303 -2.408761 0.242082 0.105760 -0.044015 -0.000000 0.000000 0.000000 0.000000 0.000000 0.000000 0.000000 
